REM DIRINDEX 1\2\4\8,1\2\4\9,1\2\4\10,1\2\5\11,1\2\5\12,1\2\5\13,1\2\5\14,1\2\5\15,1\3\6\16,1\3\6\17,1\3\6\18,1\3\7\19,1\3\7\20,1\3\7\21,1\3\7\22,1\3\7\23
REM DIRNAME "folder01","folder02","folder03","folder04","folder05","folder06","folder07","folder08","folder09","folder10","folder11","folder12","folder13","folder14","folder15","folder16","folder17","folder18","folder19","folder20","folder21","folder22","folder23"
TITLE ""
FILE "LR_black_phrase_E_S04.mp3" MP3
  TRACK 01 AUDIO
    TITLE "0:"
    INDEX 01 00:00:00
  TRACK 02 AUDIO
    TITLE "16:cjc171_10581"
    INDEX 01 00:00:14
  TRACK 03 AUDIO
    TITLE "0:"
    INDEX 01 00:01:25
  TRACK 04 AUDIO
    TITLE "17:cjc171_10582"
    INDEX 01 00:01:55
  TRACK 05 AUDIO
    TITLE "0:"
    INDEX 01 00:04:47
  TRACK 06 AUDIO
    TITLE "18:cjc171_10583"
    INDEX 01 00:05:25
  TRACK 07 AUDIO
    TITLE "0:"
    INDEX 01 00:08:18
  TRACK 08 AUDIO
    TITLE "16:cjc171_10584"
    INDEX 01 00:09:19
  TRACK 09 AUDIO
    TITLE "0:"
    INDEX 01 00:10:30
  TRACK 10 AUDIO
    TITLE "17:cjc171_10585"
    INDEX 01 00:10:60
  TRACK 11 AUDIO
    TITLE "0:"
    INDEX 01 00:12:72
  TRACK 12 AUDIO
    TITLE "18:cjc171_10586"
    INDEX 01 00:13:52
  TRACK 13 AUDIO
    TITLE "0:"
    INDEX 01 00:15:65
  TRACK 14 AUDIO
    TITLE "16:cjc171_10587"
    INDEX 01 00:16:64
  TRACK 15 AUDIO
    TITLE "0:"
    INDEX 01 00:17:60
  TRACK 16 AUDIO
    TITLE "17:cjc171_10588"
    INDEX 01 00:18:06
  TRACK 17 AUDIO
    TITLE "0:"
    INDEX 01 00:20:13
  TRACK 18 AUDIO
    TITLE "18:cjc171_10589"
    INDEX 01 00:20:60
  TRACK 19 AUDIO
    TITLE "0:"
    INDEX 01 00:22:67
  TRACK 20 AUDIO
    TITLE "16:cjc171_10590"
    INDEX 01 00:23:62
  TRACK 21 AUDIO
    TITLE "0:"
    INDEX 01 00:25:02
  TRACK 22 AUDIO
    TITLE "17:cjc171_10591"
    INDEX 01 00:25:22
  TRACK 23 AUDIO
    TITLE "0:"
    INDEX 01 00:27:42
  TRACK 24 AUDIO
    TITLE "18:cjc171_10592"
    INDEX 01 00:28:13
  TRACK 25 AUDIO
    TITLE "0:"
    INDEX 01 00:30:33
  TRACK 26 AUDIO
    TITLE "16:cjc171_10593"
    INDEX 01 00:31:32
  TRACK 27 AUDIO
    TITLE "0:"
    INDEX 01 00:32:30
  TRACK 28 AUDIO
    TITLE "17:cjc171_10594"
    INDEX 01 00:32:61
  TRACK 29 AUDIO
    TITLE "0:"
    INDEX 01 00:34:70
  TRACK 30 AUDIO
    TITLE "18:cjc171_10595"
    INDEX 01 00:35:50
  TRACK 31 AUDIO
    TITLE "0:"
    INDEX 01 00:37:60
  TRACK 32 AUDIO
    TITLE "16:cjc171_10596"
    INDEX 01 00:38:64
  TRACK 33 AUDIO
    TITLE "0:"
    INDEX 01 00:40:14
  TRACK 34 AUDIO
    TITLE "17:cjc171_10597"
    INDEX 01 00:40:43
  TRACK 35 AUDIO
    TITLE "0:"
    INDEX 01 00:43:00
  TRACK 36 AUDIO
    TITLE "18:cjc171_10598"
    INDEX 01 00:43:55
  TRACK 37 AUDIO
    TITLE "0:"
    INDEX 01 00:46:12
  TRACK 38 AUDIO
    TITLE "16:cjc171_10599"
    INDEX 01 00:47:12
  TRACK 39 AUDIO
    TITLE "0:"
    INDEX 01 00:48:29
  TRACK 40 AUDIO
    TITLE "17:cjc171_10600"
    INDEX 01 00:48:50
  TRACK 41 AUDIO
    TITLE "0:"
    INDEX 01 00:50:53
  TRACK 42 AUDIO
    TITLE "18:cjc171_10601"
    INDEX 01 00:51:25
  TRACK 43 AUDIO
    TITLE "0:"
    INDEX 01 00:53:28
  TRACK 44 AUDIO
    TITLE "16:cjc171_10602"
    INDEX 01 00:54:26
  TRACK 45 AUDIO
    TITLE "0:"
    INDEX 01 00:55:31
  TRACK 46 AUDIO
    TITLE "17:cjc171_10603"
    INDEX 01 00:55:49
  TRACK 47 AUDIO
    TITLE "0:"
    INDEX 01 00:57:51
  TRACK 48 AUDIO
    TITLE "18:cjc171_10604"
    INDEX 01 00:58:23
  TRACK 49 AUDIO
    TITLE "0:"
    INDEX 01 01:00:26
  TRACK 50 AUDIO
    TITLE "16:cjc171_10605"
    INDEX 01 01:01:30
  TRACK 51 AUDIO
    TITLE "0:"
    INDEX 01 01:02:49
  TRACK 52 AUDIO
    TITLE "17:cjc171_10606"
    INDEX 01 01:03:05
  TRACK 53 AUDIO
    TITLE "0:"
    INDEX 01 01:05:12
  TRACK 54 AUDIO
    TITLE "18:cjc171_10607"
    INDEX 01 01:05:65
  TRACK 55 AUDIO
    TITLE "0:"
    INDEX 01 01:07:71
  TRACK 56 AUDIO
    TITLE "16:cjc171_10608"
    INDEX 01 01:09:00
  TRACK 57 AUDIO
    TITLE "0:"
    INDEX 01 01:10:34
  TRACK 58 AUDIO
    TITLE "17:cjc171_10609"
    INDEX 01 01:10:62
  TRACK 59 AUDIO
    TITLE "0:"
    INDEX 01 01:12:63
  TRACK 60 AUDIO
    TITLE "18:cjc171_10610"
    INDEX 01 01:13:43
  TRACK 61 AUDIO
    TITLE "0:"
    INDEX 01 01:15:43
  TRACK 62 AUDIO
    TITLE "16:cjc171_10611"
    INDEX 01 01:16:47
  TRACK 63 AUDIO
    TITLE "0:"
    INDEX 01 01:17:68
  TRACK 64 AUDIO
    TITLE "17:cjc171_10612"
    INDEX 01 01:18:14
  TRACK 65 AUDIO
    TITLE "0:"
    INDEX 01 01:20:54
  TRACK 66 AUDIO
    TITLE "18:cjc171_10613"
    INDEX 01 01:21:24
  TRACK 67 AUDIO
    TITLE "0:"
    INDEX 01 01:23:64
  TRACK 68 AUDIO
    TITLE "16:cjc171_10614"
    INDEX 01 01:24:60
  TRACK 69 AUDIO
    TITLE "0:"
    INDEX 01 01:26:04
  TRACK 70 AUDIO
    TITLE "17:cjc171_10615"
    INDEX 01 01:26:24
  TRACK 71 AUDIO
    TITLE "0:"
    INDEX 01 01:29:12
  TRACK 72 AUDIO
    TITLE "18:cjc171_10616"
    INDEX 01 01:29:57
  TRACK 73 AUDIO
    TITLE "0:"
    INDEX 01 01:32:44
  TRACK 74 AUDIO
    TITLE "16:cjc171_10617"
    INDEX 01 01:33:45
  TRACK 75 AUDIO
    TITLE "0:"
    INDEX 01 01:34:62
  TRACK 76 AUDIO
    TITLE "17:cjc171_10618"
    INDEX 01 01:35:17
  TRACK 77 AUDIO
    TITLE "0:"
    INDEX 01 01:38:07
  TRACK 78 AUDIO
    TITLE "18:cjc171_10619"
    INDEX 01 01:38:62
  TRACK 79 AUDIO
    TITLE "0:"
    INDEX 01 01:41:53
  TRACK 80 AUDIO
    TITLE "16:cjc171_10620"
    INDEX 01 01:42:58
  TRACK 81 AUDIO
    TITLE "0:"
    INDEX 01 01:43:63
  TRACK 82 AUDIO
    TITLE "17:cjc171_10621"
    INDEX 01 01:44:18
  TRACK 83 AUDIO
    TITLE "0:"
    INDEX 01 01:46:18
  TRACK 84 AUDIO
    TITLE "18:cjc171_10622"
    INDEX 01 01:46:71
  TRACK 85 AUDIO
    TITLE "0:"
    INDEX 01 01:48:70
  TRACK 86 AUDIO
    TITLE "16:cjc171_10623"
    INDEX 01 01:49:74
  TRACK 87 AUDIO
    TITLE "0:"
    INDEX 01 01:51:18
  TRACK 88 AUDIO
    TITLE "17:cjc171_10624"
    INDEX 01 01:51:39
  TRACK 89 AUDIO
    TITLE "0:"
    INDEX 01 01:54:12
  TRACK 90 AUDIO
    TITLE "18:cjc171_10625"
    INDEX 01 01:54:57
  TRACK 91 AUDIO
    TITLE "0:"
    INDEX 01 01:57:30
  TRACK 92 AUDIO
    TITLE "16:cjc171_10626"
    INDEX 01 01:58:24
  TRACK 93 AUDIO
    TITLE "0:"
    INDEX 01 01:59:41
  TRACK 94 AUDIO
    TITLE "17:cjc171_10627"
    INDEX 01 01:59:62
  TRACK 95 AUDIO
    TITLE "0:"
    INDEX 01 02:01:61
  TRACK 96 AUDIO
    TITLE "18:cjc171_10628"
    INDEX 01 02:02:35
  TRACK 97 AUDIO
    TITLE "0:"
    INDEX 01 02:04:34
  TRACK 98 AUDIO
    TITLE "16:cjc171_10629"
    INDEX 01 02:05:37
  TRACK 99 AUDIO
    TITLE "0:"
    INDEX 01 02:06:68
  TRACK 100 AUDIO
    TITLE "17:cjc171_10630"
    INDEX 01 02:07:23
  TRACK 101 AUDIO
    TITLE "0:"
    INDEX 01 02:09:45
  TRACK 102 AUDIO
    TITLE "18:cjc171_10631"
    INDEX 01 02:10:25
  TRACK 103 AUDIO
    TITLE "0:"
    INDEX 01 02:12:49
  TRACK 104 AUDIO
    TITLE "16:cjc171_10632"
    INDEX 01 02:13:53
  TRACK 105 AUDIO
    TITLE "0:"
    INDEX 01 02:14:66
  TRACK 106 AUDIO
    TITLE "17:cjc171_10633"
    INDEX 01 02:15:20
  TRACK 107 AUDIO
    TITLE "0:"
    INDEX 01 02:16:74
  TRACK 108 AUDIO
    TITLE "18:cjc171_10634"
    INDEX 01 02:17:54
  TRACK 109 AUDIO
    TITLE "0:"
    INDEX 01 02:19:34
  TRACK 110 AUDIO
    TITLE "16:cjc171_10635"
    INDEX 01 02:20:35
  TRACK 111 AUDIO
    TITLE "0:"
    INDEX 01 02:21:42
  TRACK 112 AUDIO
    TITLE "17:cjc171_10636"
    INDEX 01 02:21:64
  TRACK 113 AUDIO
    TITLE "0:"
    INDEX 01 02:24:23
  TRACK 114 AUDIO
    TITLE "18:cjc171_10637"
    INDEX 01 02:24:66
  TRACK 115 AUDIO
    TITLE "0:"
    INDEX 01 02:27:25
  TRACK 116 AUDIO
    TITLE "16:cjc171_10638"
    INDEX 01 02:28:19
  TRACK 117 AUDIO
    TITLE "0:"
    INDEX 01 02:29:34
  TRACK 118 AUDIO
    TITLE "17:cjc171_10639"
    INDEX 01 02:29:57
  TRACK 119 AUDIO
    TITLE "0:"
    INDEX 01 02:31:51
  TRACK 120 AUDIO
    TITLE "18:cjc171_10640"
    INDEX 01 02:32:24
  TRACK 121 AUDIO
    TITLE "0:"
    INDEX 01 02:34:16
